<svg xmlns="http://www.w3.org/2000/svg" width="39" height="39" viewBox="0 0 39 39">
  <g id="iconpagos" transform="translate(-0.007)">
    <path id="Trazado_3140" data-name="Trazado 3140" d="M19.5,0A19.5,19.5,0,1,1,0,19.5,19.5,19.5,0,0,1,19.5,0Z" transform="translate(0.007)" fill="rgba(221,221,221,0.85)"/>
    <g id="Capa_5" transform="translate(5.507 2.8)">
      <g id="Grupo_11532" data-name="Grupo 11532" transform="translate(0.5 9.2)">
        <g id="Grupo_11531" data-name="Grupo 11531" transform="translate(0 0)">
          <path id="Trazado_7150" data-name="Trazado 7150" d="M7.869,24.822l1.937-1.937a3.089,3.089,0,0,0,2.533-.67l4.171-4.171L13.754,14.1h-2.98a1.754,1.754,0,0,0-1.564.6L6.975,16.926,3.4,20.5Z" transform="translate(-1.24 -12.084)" fill="#fff"/>
          <path id="Trazado_7151" data-name="Trazado 7151" d="M7.742,25.171,2.9,20.33,8.859,14.37a2.669,2.669,0,0,1,1.788-.67h3.129l2.98,4.32-4.32,4.32a3.173,3.173,0,0,1-2.682.819ZM3.868,20.33l3.948,3.948L9.6,22.49l.149.074a2.419,2.419,0,0,0,2.235-.67l4.022-4.022L13.552,14.3H10.8a1.836,1.836,0,0,0-1.341.447Z" transform="translate(-1.112 -11.987)"/>
          <rect id="Rectángulo_4747" data-name="Rectángulo 4747" width="2.756" height="7.896" transform="matrix(0.707, -0.707, 0.707, 0.707, 0.433, 9.163)" fill="#ef3829"/>
          <path id="Trazado_7152" data-name="Trazado 7152" d="M6.534,28.892.5,22.858,2.958,20.4l6.034,6.034Zm-5.14-6.034L6.534,28l1.49-1.49-5.14-5.14Z" transform="translate(-0.5 -13.696)"/>
          <rect id="Rectángulo_4748" data-name="Rectángulo 4748" width="0.67" height="0.894" transform="matrix(0.707, -0.707, 0.707, 0.707, 1.852, 9.074)"/>
          <path id="Trazado_7153" data-name="Trazado 7153" d="M17.389,17.1H12.77l-.67,4.32a3.785,3.785,0,0,0,2.607-2.011h2.309a1.17,1.17,0,0,0,.372-2.309" transform="translate(-3.459 -12.854)" fill="#fff"/>
          <g id="Grupo_11530" data-name="Grupo 11530" transform="translate(12.291)">
            <g id="Grupo_11529" data-name="Grupo 11529">
              <path id="Trazado_7154" data-name="Trazado 7154" d="M18.666,11.8H30.808a1.305,1.305,0,0,1,1.266,1.266v7.374a1.305,1.305,0,0,1-1.266,1.266H18.666A1.305,1.305,0,0,1,17.4,20.441V13.066A1.256,1.256,0,0,1,18.666,11.8Z" transform="translate(-17.102 -11.502)" fill="#fff"/>
              <path id="Trazado_7155" data-name="Trazado 7155" d="M30.706,21.9H18.564A1.527,1.527,0,0,1,17,20.339h0V12.964A1.527,1.527,0,0,1,18.564,11.4H30.706a1.527,1.527,0,0,1,1.564,1.564h0v7.374A1.682,1.682,0,0,1,30.706,21.9ZM18.564,12a.986.986,0,0,0-.968.968v7.374a.986.986,0,0,0,.968.968H30.706a.986.986,0,0,0,.968-.968V12.964A.986.986,0,0,0,30.706,12Z" transform="translate(-17 -11.4)"/>
            </g>
            <rect id="Rectángulo_4749" data-name="Rectángulo 4749" width="14.674" height="1.788" transform="translate(0.298 2.309)"/>
            <rect id="Rectángulo_4750" data-name="Rectángulo 4750" width="1.564" height="1.564" transform="translate(11.471 6.704)"/>
          </g>
          <path id="Trazado_7156" data-name="Trazado 7156" d="M11.3,17.3H15.84a1.369,1.369,0,0,1,1.266,1.564h0v.074a1.635,1.635,0,0,1-.372.894,1.826,1.826,0,0,1-1.192.447H13.456A4.185,4.185,0,0,1,10.7,22.291Z" transform="translate(-3.102 -12.905)" fill="#fff"/>
          <path id="Trazado_7157" data-name="Trazado 7157" d="M11.649,22.165l-.149-.67a3.574,3.574,0,0,0,2.384-1.788l.074-.149h2.458a1.12,1.12,0,0,0,.819-.3.846.846,0,0,0,.223-.6c0-.372-.223-.894-.67-.894H12.245V17.1h4.544a1.369,1.369,0,0,1,1.266,1.564h0v.074a1.635,1.635,0,0,1-.372.894,1.826,1.826,0,0,1-1.192.447H14.405a3.682,3.682,0,0,1-2.756,2.086" transform="translate(-3.306 -12.854)"/>
        </g>
      </g>
    </g>
  </g>
</svg>
