<svg xmlns="http://www.w3.org/2000/svg" width="39" height="39" viewBox="0 0 39 39">
  <g id="icontiempoentrega" transform="translate(-439 -870)">
    <path id="Trazado_3140" data-name="Trazado 3140" d="M19.5,0A19.5,19.5,0,1,1,0,19.5,19.5,19.5,0,0,1,19.5,0Z" transform="translate(439 870)" fill="rgba(221,221,221,0.85)"/>
    <g id="Grupo_13589" data-name="Grupo 13589" transform="translate(-0.573 -0.27)">
      <rect id="Rectángulo_4753" data-name="Rectángulo 4753" width="15" height="10" transform="translate(452 891)" fill="#fff"/>
      <rect id="Rectángulo_4752" data-name="Rectángulo 4752" width="11" height="6" transform="translate(453.6 886.4)" fill="#e8e8e9"/>
      <g id="Grupo_13588" data-name="Grupo 13588" transform="translate(-41.229 55.344)">
        <g id="Grupo_10643" data-name="Grupo 10643" transform="translate(489.032 822.926)">
          <g id="Grupo_10642" data-name="Grupo 10642" transform="translate(0 0)">
            <g id="Grupo_10613" data-name="Grupo 10613" transform="translate(2.634 21.942)">
              <rect id="Rectángulo_4572" data-name="Rectángulo 4572" width="17.867" height="0.736"/>
            </g>
            <g id="Grupo_10614" data-name="Grupo 10614" transform="translate(15.034 8.076)">
              <path id="Trazado_7491" data-name="Trazado 7491" d="M133.8,253.946h-.736v-.576l-1.821-2.135v-.847h.736v.576L133.8,253.1Z" transform="translate(-131.239 -250.387)"/>
            </g>
            <g id="Grupo_10615" data-name="Grupo 10615" transform="translate(12.484 8.076)">
              <path id="Trazado_7492" data-name="Trazado 7492" d="M128.766,253.946h-.736V253.3l-.728-2.2v-.712h.736v.651l.728,2.2Z" transform="translate(-127.301 -250.387)"/>
            </g>
            <g id="Grupo_10616" data-name="Grupo 10616" transform="translate(5.927 8.076)">
              <path id="Trazado_7493" data-name="Trazado 7493" d="M117.913,253.946h-.736V253.1L119,250.963v-.576h.736v.847l-1.821,2.135Z" transform="translate(-117.176 -250.387)"/>
            </g>
            <g id="Grupo_10617" data-name="Grupo 10617" transform="translate(9.57 8.076)">
              <path id="Trazado_7494" data-name="Trazado 7494" d="M123.538,253.946H122.8l.02-.831.709-2.077v-.651h.736l-.02.831-.709,2.077Z" transform="translate(-122.801 -250.387)"/>
            </g>
            <g id="Grupo_10618" data-name="Grupo 10618" transform="translate(19.04 11.99)">
              <rect id="Rectángulo_4573" data-name="Rectángulo 4573" width="0.736" height="10.32"/>
            </g>
            <g id="Grupo_10619" data-name="Grupo 10619" transform="translate(3.378 11.99)">
              <rect id="Rectángulo_4574" data-name="Rectángulo 4574" width="0.736" height="10.32"/>
            </g>
            <g id="Grupo_10620" data-name="Grupo 10620" transform="translate(5.927 5.217)">
              <rect id="Rectángulo_4575" data-name="Rectángulo 4575" width="10.927" height="2.491" transform="translate(0.368 0.368)" fill="#e8e8e9"/>
              <path id="Trazado_7495" data-name="Trazado 7495" d="M128.84,249.2H117.176v-3.227H128.84Zm-10.927-.736H128.1v-1.755H117.912Z" transform="translate(-117.176 -245.972)"/>
            </g>
            <g id="Grupo_10621" data-name="Grupo 10621" transform="translate(2.285 11.266)">
              <path id="Trazado_7496" data-name="Trazado 7496" d="M112.12,255.883v2.135a1.822,1.822,0,0,0,3.642,0,1.822,1.822,0,0,0,3.642,0,1.822,1.822,0,0,0,3.642,0,1.822,1.822,0,0,0,3.642,0,1.822,1.822,0,0,0,3.642,0v-2.135Z" transform="translate(-111.752 -255.515)" fill="#e8e8e9"/>
              <path id="Trazado_7497" data-name="Trazado 7497" d="M128.31,259.965a2.262,2.262,0,0,1-1.821-1.006,2.151,2.151,0,0,1-3.642,0,2.151,2.151,0,0,1-3.642,0,2.151,2.151,0,0,1-3.642,0,2.176,2.176,0,0,1-4.011-1.141v-2.5H130.5v2.5A2.254,2.254,0,0,1,128.31,259.965Zm-2.189-2.147h.736a1.454,1.454,0,0,0,2.906,0V256.05H112.287v1.767a1.454,1.454,0,0,0,2.906,0h.736a1.454,1.454,0,0,0,2.906,0h.736a1.454,1.454,0,0,0,2.906,0h.736a1.454,1.454,0,0,0,2.906,0Z" transform="translate(-111.551 -255.314)"/>
            </g>
            <g id="Grupo_10622" data-name="Grupo 10622" transform="translate(2.285 7.708)">
              <path id="Trazado_7498" data-name="Trazado 7498" d="M130.5,254.114H111.551V252.72l3.889-2.9h11.172l3.888,2.9Zm-18.212-.736h17.476v-.288l-3.4-2.534H115.684l-3.4,2.534Z" transform="translate(-111.551 -249.819)"/>
            </g>
            <g id="Grupo_10623" data-name="Grupo 10623" transform="translate(5.927 13.058)">
              <rect id="Rectángulo_4576" data-name="Rectángulo 4576" width="0.736" height="0.712"/>
            </g>
            <g id="Grupo_10624" data-name="Grupo 10624" transform="translate(9.57 13.058)">
              <rect id="Rectángulo_4577" data-name="Rectángulo 4577" width="0.736" height="0.712"/>
            </g>
            <g id="Grupo_10625" data-name="Grupo 10625" transform="translate(13.212 13.058)">
              <rect id="Rectángulo_4578" data-name="Rectángulo 4578" width="0.736" height="0.712"/>
            </g>
            <g id="Grupo_10626" data-name="Grupo 10626" transform="translate(16.855 13.058)">
              <rect id="Rectángulo_4579" data-name="Rectángulo 4579" width="0.736" height="0.712"/>
            </g>
            <g id="Grupo_10627" data-name="Grupo 10627" transform="translate(13.577 16.96)">
              <rect id="Rectángulo_4580" data-name="Rectángulo 4580" width="3.642" height="4.982" transform="translate(0.368 0.368)" fill="#e8e8e9"/>
              <path id="Trazado_7499" data-name="Trazado 7499" d="M133.368,269.825h-4.379v-5.718h4.379Zm-3.642-.736h2.906v-4.246h-2.906Z" transform="translate(-128.989 -264.107)"/>
            </g>
            <g id="Grupo_10628" data-name="Grupo 10628" transform="translate(7.749 16.96)">
              <rect id="Rectángulo_4581" data-name="Rectángulo 4581" width="4.371" height="3.203" transform="translate(0.368 0.368)" fill="#e2e2e2"/>
              <path id="Trazado_7500" data-name="Trazado 7500" d="M125.1,268.046h-5.107v-3.939H125.1Zm-4.371-.736h3.635v-2.467h-3.635Z" transform="translate(-119.989 -264.107)"/>
            </g>
            <g id="Grupo_10629" data-name="Grupo 10629" transform="translate(20.865 21.942)">
              <rect id="Rectángulo_4582" data-name="Rectángulo 4582" width="0.728" height="0.736"/>
            </g>
            <g id="Grupo_10630" data-name="Grupo 10630" transform="translate(1.55 21.942)">
              <rect id="Rectángulo_4583" data-name="Rectángulo 4583" width="0.728" height="0.736"/>
            </g>
            <g id="Grupo_10641" data-name="Grupo 10641">
              <g id="Grupo_10631" data-name="Grupo 10631" transform="translate(1.551 0.381)">
                <path id="Trazado_7501" data-name="Trazado 7501" d="M118.947,240.832h-1.961l0-.365a1.162,1.162,0,0,0-1.31-1.225,1.309,1.309,0,0,0-1.135.585l-.122.2-.232-.027a.892.892,0,0,0-1.1.594l-.089.24h-2.572V240.1h2.077a1.543,1.543,0,0,1,1.552-.846,2.067,2.067,0,0,1,1.627-.745,1.876,1.876,0,0,1,2.017,1.59h1.257Z" transform="translate(-110.418 -238.505)" fill="#bbbec1"/>
              </g>
              <g id="Grupo_10635" data-name="Grupo 10635" transform="translate(0 1.972)">
                <rect id="Rectángulo_4587" data-name="Rectángulo 4587" width="0.776" height="0.736" fill="#bbbec1"/>
              </g>
              <g id="Grupo_10636" data-name="Grupo 10636" transform="translate(12.794 0.004)">
                <path id="Trazado_7502" data-name="Trazado 7502" d="M138.249,240.627h-3.5v-.367a1.987,1.987,0,0,0-1.765-1.6,1.782,1.782,0,0,0-1.653,1.094l-.134.335-.337-.128a1.02,1.02,0,0,0-1.245.474l-.1.192h-1.731v-.736h1.314a1.791,1.791,0,0,1,1.7-.71,2.539,2.539,0,0,1,2.191-1.257,2.773,2.773,0,0,1,2.448,1.967h2.816Z" transform="translate(-127.781 -237.923)" fill="#bbbec1"/>
              </g>
              <g id="Grupo_10637" data-name="Grupo 10637" transform="translate(11.244 1.972)">
                <rect id="Rectángulo_4588" data-name="Rectángulo 4588" width="0.775" height="0.736" fill="#bbbec1"/>
              </g>
              <g id="Grupo_10638" data-name="Grupo 10638" transform="translate(1.551 0.379)">
                <path id="Trazado_7503" data-name="Trazado 7503" d="M112.99,240.83h-2.572v-.736h2.077a1.546,1.546,0,0,1,1.555-.846,2.217,2.217,0,0,1,2.629-.536l-.287.679a1.459,1.459,0,0,0-1.853.433l-.122.2-.232-.027a.892.892,0,0,0-1.1.594Z" transform="translate(-110.418 -238.501)" fill="#bbbec1"/>
              </g>
              <g id="Grupo_10639" data-name="Grupo 10639" transform="translate(15.93)">
                <path id="Trazado_7504" data-name="Trazado 7504" d="M139.948,240.624h-3.5v-.367a1.9,1.9,0,0,0-.648-1.129,1.573,1.573,0,0,0-1.09-.473,2.018,2.018,0,0,0-1.537.767l-.55-.489a2.739,2.739,0,0,1,2.036-1.013,2.217,2.217,0,0,1,1.643.67,2.929,2.929,0,0,1,.828,1.3h2.817Z" transform="translate(-132.623 -237.916)" fill="#bbbec1"/>
              </g>
            </g>
          </g>
        </g>
        <g id="Grupo_13586" data-name="Grupo 13586" transform="translate(488.163 831.474)">
          <g id="Grupo_10524" data-name="Grupo 10524" transform="translate(0 0)">
            <path id="Trazado_7441" data-name="Trazado 7441" d="M509.914,264.482c.161-4.1,4.18-5.119,4.18-8.476a4.42,4.42,0,1,0-8.834.308c.236,3.117,4.012,4.2,4.168,8.168Z" transform="translate(-504.881 -251.317)" fill="#cd3b2e"/>
            <path id="Trazado_7442" data-name="Trazado 7442" d="M510.068,264.649h-1.194l-.014-.354a6.908,6.908,0,0,0-2.177-4.424,6.487,6.487,0,0,1-1.99-3.731,4.755,4.755,0,0,1,4.161-4.987,4.872,4.872,0,0,1,3.83,1.172,4.652,4.652,0,0,1,1.579,3.479c0,1.752-1.018,2.929-2,4.067a6.912,6.912,0,0,0-2.178,4.424Zm-.607-12.8a4.218,4.218,0,0,0-.518.032,4.009,4.009,0,0,0-3.516,4.2,5.844,5.844,0,0,0,1.812,3.3,8.468,8.468,0,0,1,2.232,3.85,8.476,8.476,0,0,1,2.232-3.85c.978-1.131,1.823-2.107,1.823-3.585a3.917,3.917,0,0,0-1.331-2.928A4.121,4.121,0,0,0,509.462,251.854Z" transform="translate(-504.681 -251.117)"/>
          </g>
          <g id="Grupo_10525" data-name="Grupo 10525" transform="translate(2.914 2.832)">
            <ellipse id="Elipse_886" data-name="Elipse 886" cx="1.457" cy="1.426" rx="1.457" ry="1.426" transform="translate(0.368 0.368)" fill="#fff"/>
            <path id="Trazado_7443" data-name="Trazado 7443" d="M511.005,259.079a1.794,1.794,0,1,1,1.825-1.794A1.812,1.812,0,0,1,511.005,259.079Zm0-2.851a1.058,1.058,0,1,0,1.089,1.057A1.075,1.075,0,0,0,511.005,256.228Z" transform="translate(-509.18 -255.491)"/>
          </g>
        </g>
        <g id="Grupo_13588-2" data-name="Grupo 13588" transform="translate(487.802 828.905)">
          <g id="Grupo_10513" data-name="Grupo 10513" transform="translate(0 0)">
            <rect id="Rectángulo_4513" data-name="Rectángulo 4513" width="4.007" height="0.736" fill="#bbbec1"/>
          </g>
          <g id="Grupo_10529" data-name="Grupo 10529" transform="translate(4.735 0)">
            <rect id="Rectángulo_4524" data-name="Rectángulo 4524" width="0.728" height="0.736" fill="#bbbec1"/>
          </g>
        </g>
        <g id="Grupo_11268" data-name="Grupo 11268" transform="translate(502.513 823.558)">
          <g id="Grupo_8963" data-name="Grupo 8963" transform="translate(0 0)">
            <g id="Grupo_8953" data-name="Grupo 8953" transform="translate(0 1.772)">
              <path id="Trazado_6411" data-name="Trazado 6411" d="M526.824,148.134v.549a4.674,4.674,0,1,0,1.039,0v-.549" transform="translate(-522.455 -148.133)" fill="#fff"/>
              <path id="Trazado_6412" data-name="Trazado 6412" d="M527,158.215a4.889,4.889,0,0,1-.734-9.722v-.362h.432v.74l-.191.021a4.459,4.459,0,1,0,.991,0l-.191-.021v-.74h.432v.362a4.889,4.889,0,0,1-.734,9.722Z" transform="translate(-522.111 -148.132)"/>
            </g>
            <g id="Grupo_8954" data-name="Grupo 8954" transform="translate(1.297 3.653)">
              <path id="Trazado_6413" data-name="Trazado 6413" d="M529.085,159.94a3.591,3.591,0,0,1-1.383-6.9l.165.4a3.161,3.161,0,1,0,2.438,0l.166-.4a3.591,3.591,0,0,1-1.385,6.9Z" transform="translate(-525.494 -153.036)"/>
            </g>
            <g id="Grupo_8955" data-name="Grupo 8955" transform="translate(3.374)">
              <path id="Trazado_6414" data-name="Trazado 6414" d="M532.511,145.109h-1.039V144.07h2.6v1.039H533.03" transform="translate(-531.257 -143.855)" fill="#cd3b2e"/>
              <path id="Trazado_6415" data-name="Trazado 6415" d="M533.938,144.979h-1.253v-.432h.824v-.61h-2.168v.61h.824v.432h-1.253v-1.468h3.026Z" transform="translate(-530.912 -143.511)"/>
            </g>
            <g id="Grupo_8956" data-name="Grupo 8956" transform="translate(3.894 5.973)">
              <circle id="Elipse_771" data-name="Elipse 771" cx="0.779" cy="0.779" r="0.779" transform="translate(0.215 0.215)" fill="#cd3b2e"/>
              <path id="Trazado_6416" data-name="Trazado 6416" d="M533.261,161.073a.994.994,0,1,1,.994-.994A.994.994,0,0,1,533.261,161.073Zm0-1.558a.564.564,0,1,0,.565.565A.564.564,0,0,0,533.261,159.516Z" transform="translate(-532.267 -159.086)"/>
            </g>
            <g id="Grupo_8957" data-name="Grupo 8957" transform="translate(4.673 3.331)">
              <rect id="Rectángulo_3778" data-name="Rectángulo 3778" width="0.429" height="2.857"/>
            </g>
            <g id="Grupo_8958" data-name="Grupo 8958" transform="translate(4.673 7.745)">
              <rect id="Rectángulo_3779" data-name="Rectángulo 3779" width="0.429" height="0.779"/>
            </g>
            <g id="Grupo_8959" data-name="Grupo 8959" transform="translate(8.112 1.88)">
              <rect id="Rectángulo_3780" data-name="Rectángulo 3780" width="0.43" height="1.102" transform="translate(0 0.304) rotate(-44.987)"/>
            </g>
            <g id="Grupo_8960" data-name="Grupo 8960" transform="translate(7.592 2.401)">
              <rect id="Rectángulo_3781" data-name="Rectángulo 3781" width="1.102" height="0.429" transform="translate(0 0.779) rotate(-44.967)"/>
            </g>
            <g id="Grupo_8961" data-name="Grupo 8961" transform="translate(0.581 1.881)">
              <rect id="Rectángulo_3782" data-name="Rectángulo 3782" width="1.102" height="0.429" transform="translate(0 0.779) rotate(-45)"/>
            </g>
            <g id="Grupo_8962" data-name="Grupo 8962" transform="translate(1.1 2.4)">
              <rect id="Rectángulo_3783" data-name="Rectángulo 3783" width="0.429" height="1.102" transform="matrix(0.707, -0.707, 0.707, 0.707, 0, 0.303)"/>
            </g>
          </g>
        </g>
      </g>
      <rect id="Rectángulo_4751" data-name="Rectángulo 4751" width="3" height="4.3" transform="translate(462 895.9)" fill="#e2e2e2"/>
    </g>
  </g>
</svg>
