<svg width="40" height="40" viewBox="0 0 40 40" fill="none" xmlns="http://www.w3.org/2000/svg">
<g clip-path="url(#clip0_158_4)">
<path d="M20 0C23.9556 0 27.8224 1.17298 31.1114 3.37061C34.4004 5.56824 36.9638 8.69181 38.4776 12.3463C39.9913 16.0009 40.3874 20.0222 39.6157 23.9018C38.844 27.7814 36.9392 31.3451 34.1421 34.1421C31.3451 36.9392 27.7814 38.844 23.9018 39.6157C20.0222 40.3874 16.0009 39.9913 12.3463 38.4776C8.69181 36.9638 5.56824 34.4004 3.37061 31.1114C1.17298 27.8224 0 23.9556 0 20C0 14.6957 2.10714 9.60859 5.85786 5.85786C9.60859 2.10714 14.6957 0 20 0Z" fill="#DDDDDD" fill-opacity="0.85"/>
<path d="M14.8262 24.9561L11.1895 16.6696V16.1172H29.9325L30.492 16.6696L28.8135 21.6415L27.6945 24.1274L27.135 24.9561H14.8262Z" fill="white"/>
<path d="M23.6292 12.123H15.1035V15.045H23.6292V12.123Z" fill="#E8E8E9"/>
<path d="M19.7949 9.61963V12.124H23.6315V15.046H28.3206V9.61963H19.7949Z" fill="#EF3829"/>
<path d="M17.9029 15.0125H15.1055V11.9741H18.7422H23.7776V14.4601V15.0125H22.0991H17.9029Z" fill="white"/>
<path d="M24.0297 15.0467H23.235V12.5139H15.5037V15.0467H14.709V11.7349H24.0294L24.0297 15.0467Z" fill="black"/>
<path d="M28.7192 15.0456H27.9245V10.0079H20.1931V11.7344H24.0297V15.0453H23.235V12.5126H19.3984V9.23096H28.7188L28.7192 15.0456Z" fill="black"/>
<path d="M10.8415 18.8311H7.85742V19.6092H10.8415V18.8311Z" fill="black"/>
<path d="M7.00684 18.8311H6.1543V19.6092H7.00684V18.8311Z" fill="black"/>
<path d="M13.312 21.8813L10.1601 15.0169H6.1543V14.2388H10.6743L14.0372 21.562L13.312 21.8813Z" fill="black"/>
<path d="M26.1991 25.4528H15.1048V24.675H26.1991C26.5524 24.6754 26.8968 24.5666 27.183 24.3639C27.4693 24.1612 27.6827 23.875 27.7929 23.5464L29.9691 17.0733C29.976 17.037 29.9744 16.9996 29.9646 16.964C29.9547 16.9283 29.9368 16.8953 29.9121 16.8673C29.8764 16.8166 29.8297 16.7743 29.7753 16.7432C29.721 16.7121 29.6603 16.6931 29.5977 16.6875H12.9727V15.9097H29.5983C29.7867 15.9148 29.9712 15.9629 30.1373 16.0501C30.3034 16.1374 30.4464 16.2613 30.5549 16.4122C30.6549 16.5389 30.7223 16.6872 30.7516 16.8446C30.781 17.0021 30.7713 17.1642 30.7235 17.3172L28.5473 23.7893C28.3851 24.2737 28.0706 24.6954 27.6488 24.9941C27.2271 25.2929 26.7197 25.4534 26.1991 25.4528Z" fill="black"/>
<path d="M15.1094 21.3354H8.28906V22.1136H15.1094V21.3354Z" fill="black"/>
<path d="M18.0623 17.5503H17.2676V23.3942H18.0623V17.5503Z" fill="#BBBEC1"/>
<path d="M21.4724 17.5503H20.6777V23.3942H21.4724V17.5503Z" fill="#BBBEC1"/>
<path d="M24.8826 17.5503H24.0879V23.3942H24.8826V17.5503Z" fill="#BBBEC1"/>
<path d="M26.6182 21.3354H15.9609V22.1136H26.6182V21.3354Z" fill="#BBBEC1"/>
<path d="M27.4717 18.8311H15.1094V19.6092H27.4717V18.8311Z" fill="#BBBEC1"/>
<path d="M27.0436 28.3745H17.239C16.8891 28.3768 16.5465 28.2773 16.2546 28.0885C15.9627 27.8997 15.7347 27.6302 15.5996 27.3142C15.2537 26.5808 13.9401 23.2582 13.8848 23.1171L14.6257 22.8369C14.6392 22.8714 15.9829 26.2768 16.3204 26.9869C16.3919 27.168 16.5181 27.3233 16.6822 27.4323C16.8463 27.5413 17.0404 27.5987 17.2386 27.5969H27.0433L27.0436 28.3745Z" fill="black"/>
<path d="M16.3856 31.7492C17.0937 31.7492 17.6677 31.1871 17.6677 30.4937C17.6677 29.8004 17.0937 29.2383 16.3856 29.2383C15.6775 29.2383 15.1035 29.8004 15.1035 30.4937C15.1035 31.1871 15.6775 31.7492 16.3856 31.7492Z" fill="#EF3829"/>
<path d="M16.3866 32.1378C16.0545 32.1379 15.7298 32.0415 15.4536 31.8609C15.1774 31.6803 14.9622 31.4235 14.835 31.123C14.7078 30.8226 14.6745 30.492 14.7392 30.173C14.804 29.854 14.9638 29.561 15.1987 29.331C15.4335 29.101 15.7327 28.9443 16.0584 28.8808C16.3841 28.8173 16.7218 28.8498 17.0287 28.9742C17.3356 29.0986 17.5979 29.3093 17.7824 29.5797C17.967 29.85 18.0656 30.168 18.0656 30.4932C18.0651 30.9291 17.8881 31.3471 17.5733 31.6554C17.2586 31.9637 16.8318 32.1372 16.3866 32.1378ZM16.3866 29.6276C16.2116 29.6276 16.0406 29.6784 15.8951 29.7736C15.7496 29.8688 15.6362 30.0042 15.5693 30.1625C15.5024 30.3209 15.4849 30.4951 15.5191 30.6631C15.5533 30.8312 15.6377 30.9855 15.7615 31.1066C15.8853 31.2277 16.043 31.3102 16.2146 31.3435C16.3863 31.3768 16.5642 31.3595 16.7258 31.2938C16.8875 31.2281 17.0255 31.1169 17.1226 30.9744C17.2197 30.8318 17.2714 30.6642 17.2713 30.4929C17.2708 30.2634 17.1774 30.0434 17.0116 29.8812C16.8458 29.719 16.621 29.6278 16.3866 29.6276Z" fill="black"/>
<path d="M27.5037 30.494C27.5036 30.7423 27.4284 30.985 27.2874 31.1915C27.1465 31.3979 26.9462 31.5587 26.7119 31.6537C26.4776 31.7487 26.2198 31.7735 25.9711 31.725C25.7224 31.6765 25.494 31.5569 25.3147 31.3812C25.1355 31.2056 25.0134 30.9819 24.964 30.7383C24.9146 30.4948 24.9401 30.2424 25.0372 30.013C25.1343 29.7836 25.2986 29.5876 25.5095 29.4497C25.7204 29.3118 25.9683 29.2382 26.2219 29.2383C26.3903 29.2383 26.557 29.2708 26.7126 29.3339C26.8681 29.397 27.0094 29.4895 27.1285 29.6061C27.2475 29.7227 27.3419 29.8612 27.4063 30.0135C27.4707 30.1659 27.5038 30.3292 27.5037 30.494Z" fill="#EF3829"/>
<path d="M26.2226 32.1378C25.8905 32.1379 25.5658 32.0415 25.2896 31.8609C25.0134 31.6803 24.7981 31.4235 24.6709 31.123C24.5438 30.8226 24.5104 30.492 24.5752 30.173C24.6399 29.854 24.7998 29.561 25.0346 29.331C25.2694 29.101 25.5686 28.9443 25.8943 28.8808C26.2201 28.8173 26.5577 28.8498 26.8646 28.9742C27.1715 29.0986 27.4338 29.3093 27.6184 29.5797C27.803 29.85 27.9015 30.168 27.9016 30.4932C27.901 30.9291 27.7239 31.347 27.4092 31.6553C27.0945 31.9636 26.6678 32.1371 26.2226 32.1378ZM26.2226 29.6276C26.0476 29.6276 25.8765 29.6784 25.731 29.7736C25.5855 29.8688 25.4721 30.0042 25.4052 30.1625C25.3383 30.3209 25.3208 30.4951 25.355 30.6631C25.3892 30.8312 25.4736 30.9855 25.5974 31.1066C25.7212 31.2277 25.8789 31.3102 26.0506 31.3435C26.2222 31.3768 26.4001 31.3595 26.5618 31.2938C26.7234 31.2281 26.8615 31.1169 26.9586 30.9744C27.0557 30.8318 27.1074 30.6642 27.1072 30.4929C27.1069 30.2633 27.0135 30.0433 26.8477 29.881C26.6818 29.7188 26.457 29.6277 26.2226 29.6276Z" fill="black"/>
</g>
<defs>
<clipPath id="clip0_158_4">
<rect width="40" height="40" fill="white"/>
</clipPath>
</defs>
</svg>
